<svg width="37" height="30" viewBox="0 0 37 30" fill="none" xmlns="http://www.w3.org/2000/svg">
<path d="M32.8687 0H3.16722C1.42082 0 0 1.42082 0 3.16722V13.7246C0 15.471 1.42082 16.8919 3.16722 16.8919H32.8687C34.6151 16.8919 36.036 15.471 36.036 13.7246V3.16722C36.036 1.42082 34.6151 0 32.8687 0ZM33.9245 13.7246C33.9245 14.3068 33.4509 14.7804 32.8687 14.7804H3.16722C2.58509 14.7804 2.11148 14.3068 2.11148 13.7246V3.16722C2.11148 2.58509 2.58509 2.11148 3.16722 2.11148H32.8687C33.4509 2.11148 33.9245 2.58509 33.9245 3.16722V13.7246Z" fill="#4F4F4F"/>
<path d="M30.757 10.5574H5.2784C4.69535 10.5574 4.22266 11.0301 4.22266 11.6131C4.22266 12.1962 4.69535 12.6689 5.2784 12.6689H30.757C31.34 12.6689 31.8127 12.1962 31.8127 11.6131C31.8127 11.0301 31.34 10.5574 30.757 10.5574Z" fill="#4F4F4F"/>
<path d="M26.5362 8.44644C27.1193 8.44644 27.592 7.97377 27.592 7.3907C27.592 6.80763 27.1193 6.33496 26.5362 6.33496C25.9531 6.33496 25.4805 6.80763 25.4805 7.3907C25.4805 7.97377 25.9531 8.44644 26.5362 8.44644Z" fill="#4F4F4F"/>
<path d="M30.755 8.44644C31.338 8.44644 31.8107 7.97377 31.8107 7.3907C31.8107 6.80763 31.338 6.33496 30.755 6.33496C30.1719 6.33496 29.6992 6.80763 29.6992 7.3907C29.6992 7.97377 30.1719 8.44644 30.755 8.44644Z" fill="#4F4F4F"/>
<path d="M5.82105 29.4492C8.76537 27.977 10.6276 24.967 10.6276 21.6719V20.0589C10.6276 19.4759 10.1549 19.0032 9.57189 19.0032C8.98884 19.0032 8.51615 19.4759 8.51615 20.0589V21.6719C8.51615 24.1818 7.12165 26.4381 4.8768 27.5606C4.35526 27.8214 4.1439 28.4555 4.40467 28.977C4.66544 29.4986 5.29966 29.7099 5.82105 29.4492Z" fill="#4F4F4F"/>
<path d="M26.462 19.0032C25.8789 19.0032 25.4062 19.4759 25.4062 20.0589V21.6719C25.4062 24.964 27.2656 27.9756 30.2128 29.4492C30.7353 29.7104 31.3689 29.4975 31.6292 28.977C31.89 28.4555 31.6786 27.8214 31.1571 27.5606C28.9122 26.4381 27.5177 24.1818 27.5177 21.6719V20.0589C27.5177 19.4759 27.045 19.0032 26.462 19.0032Z" fill="#4F4F4F"/>
<path d="M19.0724 28.5048V20.0589C19.0724 19.4759 18.5997 19.0032 18.0167 19.0032C17.4336 19.0032 16.9609 19.4759 16.9609 20.0589V28.5048C16.9609 29.0879 17.4336 29.5606 18.0167 29.5606C18.5997 29.5606 19.0724 29.0879 19.0724 28.5048Z" fill="#4F4F4F"/>
<path d="M23.2951 28.5048V20.0589C23.2951 19.4759 22.8224 19.0032 22.2393 19.0032C21.6563 19.0032 21.1836 19.4759 21.1836 20.0589V28.5048C21.1836 29.0879 21.6563 29.5606 22.2393 29.5606C22.8224 29.5606 23.2951 29.0879 23.2951 28.5048Z" fill="#4F4F4F"/>
<path d="M14.8498 28.5048V20.0589C14.8498 19.4759 14.3771 19.0032 13.794 19.0032C13.211 19.0032 12.7383 19.4759 12.7383 20.0589V28.5048C12.7383 29.0879 13.211 29.5606 13.794 29.5606C14.3771 29.5606 14.8498 29.0879 14.8498 28.5048Z" fill="#4F4F4F"/>
</svg>
