<svg width="36" height="34" viewBox="0 0 36 34" fill="none" xmlns="http://www.w3.org/2000/svg">
<path d="M5.25814 31.5488H10.5864V32.6005C10.5864 33.1813 11.0572 33.6521 11.638 33.6521H17.9478C18.5286 33.6521 18.9994 33.1813 18.9994 32.6005V31.5488H26.4308C29.3302 31.5488 31.6891 29.19 31.6891 26.2907V25.0582C32.0182 25.1749 32.3721 25.2391 32.7407 25.2391H34.8439C35.4247 25.2391 35.8956 24.7682 35.8956 24.1874V19.9809C35.8956 19.4002 35.4247 18.9293 34.8439 18.9293H32.7407C31.0011 18.9293 29.5858 20.3446 29.5858 22.0842V26.2907C29.5858 28.0303 28.1705 29.4456 26.4308 29.4456H26.428C27.0897 28.5661 27.4825 27.4735 27.4825 26.2907V16.6452C27.8117 16.7619 28.1655 16.826 28.5342 16.826H30.6374C31.2182 16.826 31.6891 16.3552 31.6891 15.7744V11.5679C31.6891 10.9871 31.2182 10.5163 30.6374 10.5163H28.5342C26.7946 10.5163 25.3793 11.9316 25.3793 13.6712V26.2907C25.3793 28.0303 23.964 29.4456 22.2244 29.4456H18.9994V28.394C18.9994 27.8132 18.5286 27.3423 17.9478 27.3423H11.638C11.0572 27.3423 10.5864 27.8132 10.5864 28.394V29.4456H5.25814C3.51854 29.4456 2.10326 28.0303 2.10326 26.2907C2.10326 24.5511 3.51854 23.1358 5.25814 23.1358H8.48313V24.1874C8.48313 24.7682 8.95398 25.2391 9.53476 25.2391H22.2244C22.8052 25.2391 23.276 24.7682 23.276 24.1874V1.05163C23.276 0.470849 22.8052 0 22.2244 0H9.53476C8.95398 0 8.48313 0.470849 8.48313 1.05163V21.0326H5.25814C2.3588 21.0326 0 23.3914 0 26.2907C0 29.19 2.3588 31.5488 5.25814 31.5488ZM32.7407 21.0326H33.7923V23.1358H32.7407C32.1608 23.1358 31.6891 22.6641 31.6891 22.0842C31.6891 21.5043 32.1608 21.0326 32.7407 21.0326ZM28.5342 12.6195H29.5858V14.7228H28.5342C27.9543 14.7228 27.4825 14.251 27.4825 13.6712C27.4825 13.0913 27.9543 12.6195 28.5342 12.6195ZM12.6896 29.4456H16.8962V31.5488H12.6896V29.4456ZM21.1728 10.5163H10.5864V6.30977H21.1728V10.5163ZM10.5864 23.1358V12.6195H21.1728V23.1358H10.5864ZM21.1728 2.10326V4.20651H10.5864V2.10326H21.1728Z" fill="#4F4F4F"/>
</svg>
