<svg width="33" height="27" viewBox="0 0 33 27" fill="none" xmlns="http://www.w3.org/2000/svg">
<path d="M5.84414 10.5561V3.89494C5.84414 3.38596 6.25826 2.97191 6.76723 2.97191C7.27627 2.97191 7.69033 3.38603 7.69033 3.89494H9.79084C9.79084 2.22773 8.43445 0.871338 6.76717 0.871338C5.0999 0.871338 3.74363 2.22779 3.74363 3.89494V10.5562H0V16.0767H1.57493V19.6282C1.57493 22.1031 3.44231 24.1487 5.84182 24.4335L5.23206 26.1691L7.21393 26.8653L8.05594 24.4687H24.1525L24.9944 26.8653L26.9763 26.1691L26.3666 24.4334C28.7661 24.1486 30.6334 22.1029 30.6334 19.6282V16.0767H32.2082V10.5562H5.84414V10.5561ZM28.5327 19.6281C28.5327 21.1388 27.3036 22.368 25.7927 22.368H6.41546C4.90463 22.368 3.67544 21.1389 3.67544 19.6281V16.0767H28.5327V19.6281ZM30.1076 13.9762H2.10051V12.6567H30.1076V13.9762H30.1076Z" fill="#404A5E"/>
</svg>
