<svg width="41" height="23" viewBox="0 0 41 23" fill="none" xmlns="http://www.w3.org/2000/svg">
<path d="M38.2167 4.72988V10.7249H14.3125C14.6774 10.0379 14.885 9.25511 14.885 8.42435C14.885 5.71051 12.6771 3.50267 9.9633 3.50267H4.9216C4.10889 3.50267 3.34234 3.70182 2.66617 4.05212V0.067627H0V8.42427V10.7248V13.346V20.3002V22.9344H2.66625V20.3002H38.2166V22.9344H40.8829V20.3002V10.7249V4.72988H38.2167ZM2.66625 8.42435C2.66625 7.1807 3.67803 6.16893 4.92168 6.16893H9.96346C11.2071 6.16893 12.2189 7.1807 12.2189 8.42435C12.2189 9.66801 11.2071 10.6798 9.96346 10.6798H2.66625V8.42435ZM38.2167 17.634H2.66625V13.3911H38.2166V17.634H38.2167Z" fill="#404A5E"/>
</svg>
