<svg width="24" height="13" viewBox="0 0 24 13" fill="none" xmlns="http://www.w3.org/2000/svg">
<path d="M21.6984 2.67233V6.03324H8.29725C8.50182 5.64808 8.61821 5.20925 8.61821 4.74352C8.61821 3.22209 7.38046 1.98434 5.85903 1.98434H3.03257C2.57695 1.98434 2.14721 2.09598 1.76814 2.29237V0.0585938H0.273438V4.74347V6.0332V7.50265V11.4013V12.8781H1.76818V11.4013H21.6983V12.8781H23.1931V11.4013V6.03324V2.67233H21.6984ZM1.76818 4.74352C1.76818 4.0463 2.3354 3.47909 3.03262 3.47909H5.85912C6.55634 3.47909 7.12355 4.0463 7.12355 4.74352C7.12355 5.44073 6.55634 6.00795 5.85912 6.00795H1.76818V4.74352ZM21.6984 9.90662H1.76818V7.52799H21.6983V9.90662H21.6984Z" fill="#272C37"/>
</svg>
