<svg width="23" height="20" viewBox="0 0 23 20" fill="none" xmlns="http://www.w3.org/2000/svg">
<path d="M17.5562 10.221C16.9882 10.221 16.5235 10.6857 16.5235 11.2537V13.3192H14.4581C13.8901 13.3192 13.4254 13.7839 13.4254 14.3519C13.4254 14.9199 13.8901 15.3846 14.4581 15.3846H17.5562C18.1242 15.3846 18.589 14.9199 18.589 14.3519V11.2537C18.589 10.6857 18.1242 10.221 17.5562 10.221ZM6.19632 7.12283H8.26176C8.82975 7.12283 9.29448 6.65811 9.29448 6.09011C9.29448 5.52212 8.82975 5.05739 8.26176 5.05739H5.1636C4.5956 5.05739 4.13088 5.52212 4.13088 6.09011V9.18827C4.13088 9.75627 4.5956 10.221 5.1636 10.221C5.73159 10.221 6.19632 9.75627 6.19632 9.18827V7.12283ZM20.6544 0.926514H2.06544C0.929448 0.926514 0 1.85596 0 2.99195V17.45C0 18.586 0.929448 19.5155 2.06544 19.5155H20.6544C21.7904 19.5155 22.7198 18.586 22.7198 17.45V2.99195C22.7198 1.85596 21.7904 0.926514 20.6544 0.926514ZM19.6217 17.4604H3.09816C2.53016 17.4604 2.06544 16.9956 2.06544 16.4276V4.01435C2.06544 3.44635 2.53016 2.98163 3.09816 2.98163H19.6217C20.1897 2.98163 20.6544 3.44635 20.6544 4.01435V16.4276C20.6544 16.9956 20.1897 17.4604 19.6217 17.4604Z" fill="#404A5E"/>
</svg>
