<svg width="30" height="25" viewBox="0 0 30 25" fill="none" xmlns="http://www.w3.org/2000/svg">
<path d="M15.7402 9.70384C15.7402 6.33985 13.0026 3.60303 9.63939 3.60303C6.24332 3.60303 3.48047 6.33985 3.48047 9.70384C3.48047 13.0678 6.24332 15.8047 9.63939 15.8047C13.0278 15.8047 15.7402 13.0431 15.7402 9.70384ZM13.9971 9.70384C13.9971 10.8424 13.5577 11.88 12.8402 12.657C12.2666 11.2801 12.1093 9.7756 12.3867 8.24981C12.4809 7.73235 12.629 7.22697 12.8286 6.7385C13.5529 7.51696 13.9971 8.55927 13.9971 9.70384ZM5.22356 9.70384C5.22356 7.30099 7.20446 5.34612 9.63939 5.34612C10.2564 5.34612 10.8436 5.4758 11.376 5.70816C11.0481 6.42184 10.8117 7.16857 10.6718 7.93797C10.3083 9.9366 10.5579 11.9082 11.3921 13.6923C10.8554 13.9291 10.2627 14.0616 9.63939 14.0616C7.20452 14.0616 5.22356 12.1067 5.22356 9.70384Z" fill="black"/>
<path d="M18.047 0.331555C16.9247 0.566523 15.8331 1.02414 14.8553 1.66444C12.732 0.284201 10.1366 -0.20183 7.5885 0.331555C3.77172 1.13053 0.822239 4.26594 0.154461 7.93811C-0.4691 11.3669 0.822471 14.8149 3.53791 17.0579V18.4194C3.53791 19.8611 4.71084 21.034 6.15255 21.034H8.76718V21.9056C8.76718 23.3473 9.94011 24.5202 11.3818 24.5202H18.3542C19.7959 24.5202 20.9688 23.3473 20.9688 21.9056V21.034H23.5834C25.0251 21.034 26.1981 19.8611 26.1981 18.4194V17.0574C27.2107 16.2196 28.0565 15.1853 28.6593 14.0439C29.3779 12.6829 29.7424 11.2227 29.7424 9.70397C29.7424 3.68648 24.1616 -0.948454 18.047 0.331555ZM6.15255 19.291C5.67198 19.291 5.281 18.9 5.281 18.4194V16.9773C5.28426 16.9684 5.28739 16.9595 5.29042 16.9505C5.4086 16.5938 5.2849 16.2016 4.98357 15.9772C2.52832 14.1494 1.33511 11.1884 1.86943 8.24989C2.40932 5.28123 4.81641 2.69274 7.9456 2.03769C12.963 0.987422 17.4826 4.78033 17.4826 9.70403C17.4826 12.2329 16.274 14.4803 14.3424 15.9407C14.1245 16.1054 13.9964 16.3627 13.9964 16.6359V18.4195C13.9964 18.9 13.6055 19.291 13.1249 19.291H10.5103V18.4195C10.5103 17.9382 10.1201 17.5479 9.63873 17.5479C9.1574 17.5479 8.76718 17.9382 8.76718 18.4195V19.291H6.15255V19.291ZM18.3545 5.70899C18.9003 5.47059 19.4914 5.34631 20.0973 5.34631C22.5322 5.34631 24.5131 7.30118 24.5131 9.70403C24.5131 12.1069 22.5322 14.0618 20.0973 14.0618C19.4886 14.0618 18.8949 13.9364 18.3471 13.6959C18.9203 12.4629 19.2258 11.1083 19.2258 9.70403C19.2257 8.30288 18.9222 6.94518 18.3545 5.70899ZM19.2257 21.9056C19.2257 22.3862 18.8347 22.7771 18.3542 22.7771H11.3818C10.9012 22.7771 10.5103 22.3862 10.5103 21.9056V21.034H13.1249C13.7941 21.034 14.405 20.7811 14.868 20.3662C15.331 20.7811 15.9419 21.034 16.6111 21.034H19.2257V21.9056ZM24.801 15.9405C24.5831 16.1052 24.455 16.3626 24.455 16.6358V18.4194C24.455 18.9 24.064 19.291 23.5834 19.291H20.9688V18.4194C20.9688 17.9381 20.5786 17.5479 20.0973 17.5479C19.6159 17.5479 19.2257 17.9381 19.2257 18.4194V19.291H16.6111C16.1305 19.291 15.7395 18.9 15.7395 18.4194V17.0575C16.4028 16.509 16.98 15.887 17.4645 15.2088C18.2817 15.6005 19.1774 15.8048 20.0973 15.8048C23.4933 15.8048 26.2562 13.068 26.2562 9.70403C26.2562 6.34004 23.4933 3.60322 20.0973 3.60322C19.1838 3.60322 18.2938 3.80483 17.4809 4.19134C17.1364 3.70304 16.7443 3.24449 16.3078 2.8222C16.9692 2.4565 17.6792 2.18946 18.4042 2.03769C23.4445 0.982599 27.9993 4.80148 27.9993 9.70403C27.9993 12.1315 26.8336 14.4046 24.801 15.9405Z" fill="black"/>
</svg>
