<svg width="34" height="34" viewBox="0 0 34 34" fill="none" xmlns="http://www.w3.org/2000/svg">
<path d="M25.3726 3.71069C24.826 3.71069 24.3828 4.15385 24.3828 4.70047C24.3828 5.24709 24.826 5.69024 25.3726 5.69024C26.8728 5.69024 28.0933 6.91077 28.0933 8.411C28.0933 8.95762 28.5365 9.40078 29.0831 9.40078C29.6297 9.40078 30.0729 8.95762 30.0729 8.411C30.073 5.81924 27.9644 3.71069 25.3726 3.71069Z" fill="#4F4F4F"/>
<path d="M25.3726 0C24.826 0 24.3828 0.443155 24.3828 0.989775C24.3828 1.53639 24.826 1.97955 25.3726 1.97955C28.9188 1.97955 31.8039 4.86468 31.8039 8.41091C31.8039 8.95753 32.2471 9.40068 32.7937 9.40068C33.3403 9.40068 33.7835 8.95753 33.7835 8.41091C33.7835 3.77315 30.0103 0 25.3726 0V0Z" fill="#4F4F4F"/>
<path d="M25.3726 9.40045C25.9192 9.40045 26.3624 8.95731 26.3624 8.41067C26.3624 7.86404 25.9192 7.4209 25.3726 7.4209C24.8259 7.4209 24.3828 7.86404 24.3828 8.41067C24.3828 8.95731 24.8259 9.40045 25.3726 9.40045Z" fill="#4F4F4F"/>
<path d="M24.3132 13.7825H16.9857L18.9305 1.14082C18.9964 0.712317 18.7758 0.290805 18.3863 0.100768C17.9965 -0.0894006 17.5286 -0.00368612 17.2315 0.311986L0.269081 18.3347C-0.00158988 18.6222 -0.0754271 19.0431 0.0812213 19.4055C0.237804 19.7681 0.594915 20.0028 0.989769 20.0028H8.31727L6.3725 32.6444C6.30658 33.0729 6.52716 33.4945 6.91674 33.6846C7.30645 33.8747 7.77441 33.789 8.07148 33.4733L25.0339 15.4507C25.3046 15.1632 25.3784 14.7422 25.2218 14.3798C25.0652 14.0172 24.7081 13.7825 24.3132 13.7825ZM8.81341 29.7967L10.4492 19.1635C10.5415 18.564 10.0776 18.0232 9.47095 18.0232H3.28057L16.4895 3.9886L14.8537 14.6218C14.7614 15.2213 15.2253 15.762 15.832 15.762H22.0224L8.81341 29.7967Z" fill="#4F4F4F"/>
</svg>
