<svg width="30" height="30" viewBox="0 0 30 30" fill="none" xmlns="http://www.w3.org/2000/svg">
<path d="M28.2422 24.8777V12.1535C29.2652 11.7906 30 10.8137 30 9.66791C30 8.52211 29.2652 7.54518 28.2422 7.18236V6.15229C28.2422 4.6984 27.0594 3.51557 25.6055 3.51557H23.5801C21.9536 3.51557 20.4515 2.52768 19.8425 1.05738C19.7984 0.950742 19.7337 0.853887 19.652 0.772266C19.154 0.274219 18.4918 0 17.7875 0H12.2126C11.5082 0 10.8461 0.274277 10.3481 0.772266C10.2664 0.853887 10.2018 0.950742 10.1576 1.05738C9.5485 2.52768 8.04645 3.51557 6.41994 3.51557H4.39453C2.94064 3.51557 1.75781 4.6984 1.75781 6.15229V7.18236C0.734824 7.54518 0 8.52211 0 9.66791C0 10.8137 0.734824 11.7906 1.75781 12.1535V24.8777C0.734824 25.2405 0 26.2174 0 27.3632V29.121C0 29.6064 0.393516 29.9999 0.878906 29.9999H29.1211C29.6065 29.9999 30 29.6064 30 29.121V27.3632C30 26.2174 29.2652 25.2405 28.2422 24.8777ZM3.51562 6.15229C3.51562 5.66766 3.9099 5.27338 4.39453 5.27338H6.41994C8.6768 5.27338 10.7698 3.93627 11.6962 1.9251C11.8454 1.81641 12.0244 1.75775 12.2125 1.75775H17.7875C17.9756 1.75775 18.1546 1.81641 18.3038 1.9251C19.2301 3.93627 21.3232 5.27338 23.5801 5.27338H25.6055C26.0901 5.27338 26.4844 5.66766 26.4844 6.15229V7.03119H3.51562V6.15229ZM2.63672 8.789H27.3633C27.8479 8.789 28.2422 9.18328 28.2422 9.66791C28.2422 10.1525 27.8479 10.5468 27.3633 10.5468H2.63672C2.15209 10.5468 1.75781 10.1525 1.75781 9.66791C1.75781 9.18328 2.15209 8.789 2.63672 8.789ZM21.8656 13.4078C21.4563 12.9986 21.0178 12.6303 20.555 12.3047H26.4844V24.7265H24.7266V20.2734C24.7266 17.691 23.7105 15.2527 21.8656 13.4078ZM18.7012 18.4697C17.9411 16.6487 16.7742 15.0991 15.4997 14.2183C15.2252 14.0287 14.8672 14.0107 14.5753 14.1718C14.2833 14.333 14.1077 14.6455 14.1219 14.9787C14.1863 16.4906 13.7312 16.9255 12.9772 17.646C12.5675 18.0375 12.1032 18.4812 11.6797 19.1377C10.427 21.0793 10.1763 22.9546 10.9737 24.418C11.0318 24.5247 11.0954 24.6273 11.1633 24.7264H7.03125V20.2733C7.03125 15.8794 10.6061 12.3046 15 12.3046C19.3939 12.3046 22.9688 15.8793 22.9688 20.2733V24.7264H18.7704C19.0102 24.363 19.162 23.9988 19.2569 23.6946C19.7051 22.2577 19.5078 20.4021 18.7012 18.4697ZM17.5788 23.1712C17.2523 24.2178 16.4088 24.7265 15 24.7265C13.8202 24.7265 12.9153 24.3075 12.5173 23.577C12.0489 22.7173 12.2819 21.4467 13.1568 20.0906C13.4678 19.6086 13.8194 19.2725 14.1916 18.9168C14.752 18.3813 15.3623 17.798 15.6748 16.7778C16.2188 17.4402 16.7087 18.2593 17.0791 19.1467C17.708 20.6536 17.8949 22.1581 17.5788 23.1712ZM5.27344 20.2734V24.7265H3.51562V12.3046H9.44502C8.98225 12.6303 8.54367 12.9986 8.13439 13.4078C6.28951 15.2527 5.27344 17.691 5.27344 20.2734ZM28.2422 28.2421H1.75781V27.3632C1.75781 26.8786 2.15209 26.4843 2.63672 26.4843C3.69973 26.4843 26.1522 26.4843 27.3633 26.4843C27.8479 26.4843 28.2422 26.8786 28.2422 27.3632V28.2421Z" fill="#4F4F4F"/>
</svg>
