<svg width="19" height="16" viewBox="0 0 19 16" fill="none" xmlns="http://www.w3.org/2000/svg">
<path d="M3.93648 5.86549V2.13112C3.93648 1.84578 4.16864 1.61365 4.45398 1.61365C4.73936 1.61365 4.97148 1.84581 4.97148 2.13112H6.14907C6.14907 1.19645 5.38865 0.436035 4.45395 0.436035C3.51925 0.436035 2.7589 1.19649 2.7589 2.13112V5.86552H0.660156V8.96044H1.54309V10.9514C1.54309 12.3389 2.58997 13.4857 3.93518 13.6454L3.59334 14.6184L4.70441 15.0087L5.17645 13.6651H14.2004L14.6724 15.0087L15.7835 14.6184L15.4417 13.6453C16.7869 13.4857 17.8338 12.3388 17.8338 10.9514V8.96044H18.7166V5.86552H3.93648V5.86549ZM16.6561 10.9514C16.6561 11.7983 15.967 12.4874 15.12 12.4874H4.25677C3.40978 12.4874 2.72067 11.7984 2.72067 10.9514V8.9604H16.6561V10.9514ZM17.539 7.78282H1.83774V7.0431H17.539V7.78282H17.539Z" fill="#272C37"/>
</svg>
