<svg width="32" height="25" viewBox="0 0 32 25" fill="none" xmlns="http://www.w3.org/2000/svg">
<path d="M30.9703 3.73886H28.1661V0.934716C28.1661 0.418503 27.7476 0 27.2314 0H23.4925C22.9763 0 22.5578 0.418503 22.5578 0.934716V3.73886H9.34716V0.934716C9.34716 0.418503 8.92866 0 8.41244 0H4.67358C4.15737 0 3.73886 0.418503 3.73886 0.934716V3.73886H0.934716C0.418503 3.73886 0 4.15737 0 4.67358V8.41244C0 8.92866 0.418503 9.34716 0.934716 9.34716H1.86943V23.3679C1.86943 23.8841 2.28794 24.3026 2.80415 24.3026H29.1008C29.617 24.3026 30.0355 23.8841 30.0355 23.3679V9.34716H30.9703C31.4865 9.34716 31.905 8.92866 31.905 8.41244V4.67358C31.905 4.15737 31.4865 3.73886 30.9703 3.73886ZM24.4272 1.86943H26.2967V3.73886H24.4272V1.86943ZM5.6083 1.86943H7.47773V3.73886H5.6083V1.86943ZM28.1661 22.4332H3.73886V9.34716H28.1661V22.4332ZM30.0355 7.47773H1.86943V5.6083H30.0355V7.47773Z" fill="#4F4F4F"/>
</svg>
