<svg width="14" height="14" viewBox="0 0 14 14" fill="none" xmlns="http://www.w3.org/2000/svg">
<path d="M9.82932 0H4.17068C1.87096 0 0 1.87096 0 4.17068V9.82932C0 12.129 1.87096 14 4.17068 14H9.82932C12.129 14 14 12.129 14 9.82932V4.17068C14 1.87096 12.129 0 9.82932 0ZM12.5916 9.82932C12.5916 11.3549 11.3549 12.5916 9.82932 12.5916H4.17068C2.64513 12.5916 1.4084 11.3549 1.4084 9.82932V4.17068C1.4084 2.6451 2.64513 1.4084 4.17068 1.4084H9.82932C11.3549 1.4084 12.5916 2.6451 12.5916 4.17068V9.82932Z" fill="url(#paint0_linear)"/>
<path d="M6.9998 3.37891C5.00324 3.37891 3.37891 5.00324 3.37891 6.99978C3.37891 8.99632 5.00324 10.6207 6.9998 10.6207C8.99637 10.6207 10.6207 8.99635 10.6207 6.99978C10.6207 5.00321 8.99637 3.37891 6.9998 3.37891ZM6.9998 9.2123C5.77787 9.2123 4.78731 8.22174 4.78731 6.9998C4.78731 5.77787 5.77789 4.78731 6.9998 4.78731C8.22174 4.78731 9.2123 5.77787 9.2123 6.9998C9.2123 8.22172 8.22172 9.2123 6.9998 9.2123Z" fill="url(#paint1_linear)"/>
<path d="M10.6294 4.27386C11.1085 4.27386 11.497 3.8854 11.497 3.40622C11.497 2.92703 11.1085 2.53857 10.6294 2.53857C10.1502 2.53857 9.76172 2.92703 9.76172 3.40622C9.76172 3.8854 10.1502 4.27386 10.6294 4.27386Z" fill="url(#paint2_linear)"/>
<defs>
<linearGradient id="paint0_linear" x1="7" y1="13.9592" x2="7" y2="0.10874" gradientUnits="userSpaceOnUse">
<stop stop-color="#E09B3D"/>
<stop offset="0.3" stop-color="#C74C4D"/>
<stop offset="0.6" stop-color="#C21975"/>
<stop offset="1" stop-color="#7024C4"/>
</linearGradient>
<linearGradient id="paint1_linear" x1="6.9998" y1="13.9591" x2="6.9998" y2="0.108546" gradientUnits="userSpaceOnUse">
<stop stop-color="#E09B3D"/>
<stop offset="0.3" stop-color="#C74C4D"/>
<stop offset="0.6" stop-color="#C21975"/>
<stop offset="1" stop-color="#7024C4"/>
</linearGradient>
<linearGradient id="paint2_linear" x1="10.6294" y1="13.9592" x2="10.6294" y2="0.10867" gradientUnits="userSpaceOnUse">
<stop stop-color="#E09B3D"/>
<stop offset="0.3" stop-color="#C74C4D"/>
<stop offset="0.6" stop-color="#C21975"/>
<stop offset="1" stop-color="#7024C4"/>
</linearGradient>
</defs>
</svg>
