<svg width="36" height="26" viewBox="0 0 36 26" fill="none" xmlns="http://www.w3.org/2000/svg">
<path d="M33.0646 4.13542H9.31114V3.37921C9.31114 1.51591 7.79523 0 5.93193 0H5.6744C3.8111 0 2.29519 1.51591 2.29519 3.37921V4.13542H2.09615C0.940235 4.13542 0 5.07566 0 6.2313V23.2419C0 24.3978 0.940235 25.338 2.09615 25.338H33.0646C34.2205 25.338 35.1608 24.3978 35.1608 23.2419V6.2313C35.1608 5.07566 34.2205 4.13542 33.0646 4.13542ZM4.39107 3.37921C4.39107 2.67182 4.96675 2.09615 5.6744 2.09615H5.93193C6.63959 2.09615 7.21526 2.67182 7.21526 3.37921V4.13542H4.39107V3.37921ZM33.0646 23.2419H2.09615V6.2313H33.0646L33.0659 23.2419C33.0659 23.2419 33.0657 23.2419 33.0646 23.2419Z" fill="#4F4F4F"/>
<path d="M25.3597 8.48047C21.672 8.48047 18.6719 11.4806 18.6719 15.1683C18.6719 18.856 21.672 21.8559 25.3597 21.8559C29.0475 21.8559 32.0476 18.856 32.0476 15.1683C32.0476 11.4806 29.0475 8.48047 25.3597 8.48047ZM25.3597 19.7601C22.8277 19.7601 20.7678 17.7004 20.7678 15.1683C20.7678 12.6365 22.8277 10.5766 25.3597 10.5766C27.8915 10.5766 29.9515 12.6365 29.9515 15.1683C29.9515 17.7004 27.8915 19.7601 25.3597 19.7601Z" fill="#4F4F4F"/>
<path d="M13.5428 8.04883H5.80198C5.22308 8.04883 4.75391 8.51801 4.75391 9.0969V12.3267C4.75391 12.9056 5.22308 13.3748 5.80198 13.3748H13.5428C14.1216 13.3748 14.5908 12.9056 14.5908 12.3267V9.0969C14.5908 8.51801 14.1216 8.04883 13.5428 8.04883ZM12.4949 11.2786H6.85005V10.145H12.4947V11.2786H12.4949Z" fill="#4F4F4F"/>
<path d="M5.80198 18.2177H10.4026C10.9815 18.2177 11.4506 17.7483 11.4506 17.1697C11.4506 16.5908 10.9815 16.1216 10.4026 16.1216H5.80198C5.22308 16.1216 4.75391 16.5908 4.75391 17.1697C4.75391 17.7483 5.22308 18.2177 5.80198 18.2177Z" fill="#4F4F4F"/>
<path d="M12.3195 19.3281H5.80198C5.22308 19.3281 4.75391 19.7976 4.75391 20.3762C4.75391 20.9551 5.22308 21.4243 5.80198 21.4243H12.3195C12.8984 21.4243 13.3676 20.9551 13.3676 20.3762C13.3676 19.7976 12.8984 19.3281 12.3195 19.3281Z" fill="#4F4F4F"/>
</svg>
