<svg width="13" height="13" viewBox="0 0 13 13" fill="none" xmlns="http://www.w3.org/2000/svg">
<g clip-path="url(#clip0)">
<path d="M13.0001 13.0004V12.9999H13.0034V8.23215C13.0034 5.89974 12.5012 4.10303 9.77448 4.10303C8.46365 4.10303 7.58398 4.82236 7.22485 5.50432H7.18694V4.32078H4.60156V12.9999H7.29365V8.70232C7.29365 7.57078 7.50815 6.47661 8.90944 6.47661C10.2901 6.47661 10.3107 7.76794 10.3107 8.7749V13.0004H13.0001Z" fill="#2867B2"/>
<path d="M0.214844 4.3208H2.91018V12.9999H0.214844V4.3208Z" fill="#2867B2"/>
<path d="M1.56108 0C0.699292 0 0 0.699292 0 1.56108C0 2.42288 0.699292 3.13679 1.56108 3.13679C2.42287 3.13679 3.12217 2.42288 3.12217 1.56108C3.12162 0.699292 2.42233 0 1.56108 0V0Z" fill="#2867B2"/>
</g>
<defs>
<clipPath id="clip0">
<rect width="13" height="13" fill="white"/>
</clipPath>
</defs>
</svg>
