<svg width="25" height="25" viewBox="0 0 25 25" fill="none" xmlns="http://www.w3.org/2000/svg">
<path d="M23.6217 17.6899H22.7662V16.1215C22.7662 15.7277 22.447 15.4085 22.0533 15.4085C21.6595 15.4085 21.3403 15.7277 21.3403 16.1215V17.6899H18.9639V0.864784C18.9639 0.471057 18.6447 0.151855 18.251 0.151855H6.08366C5.68993 0.151855 5.37073 0.471057 5.37073 0.864784V17.6899H2.9943V16.1215C2.9943 15.7277 2.6751 15.4085 2.28137 15.4085C1.88765 15.4085 1.56844 15.7277 1.56844 16.1215V17.6899H0.712929C0.319202 17.6899 0 18.0091 0 18.4028V23.7736C0 24.1673 0.319202 24.4865 0.712929 24.4865H23.6217C24.0154 24.4865 24.3346 24.1673 24.3346 23.7736V18.4028C24.3346 18.0091 24.0154 17.6899 23.6217 17.6899ZM1.42586 19.1158H5.37073V23.0606H1.42586V19.1158ZM10.2186 23.0606V21.3971H14.116V23.0606H10.2186ZM15.5418 23.0606V20.6842C15.5418 20.2905 15.2226 19.9713 14.8289 19.9713H9.50572C9.11199 19.9713 8.79279 20.2905 8.79279 20.6842V23.0606H6.79659V1.57771H17.538V23.0606H15.5418ZM22.9088 23.0606H18.9639V19.1158H22.9088V23.0606Z" fill="black"/>
<path d="M15.2107 3.24121H9.12699C8.73326 3.24121 8.41406 3.56041 8.41406 3.95414C8.41406 4.34787 8.73326 4.66707 9.12699 4.66707H15.2107C15.6044 4.66707 15.9236 4.34787 15.9236 3.95414C15.9236 3.56041 15.6044 3.24121 15.2107 3.24121Z" fill="black"/>
<path d="M10.2664 6.28296H9.5059C9.11217 6.28296 8.79297 6.60216 8.79297 6.99589C8.79297 7.38961 9.11217 7.70882 9.5059 7.70882H10.2664C10.6601 7.70882 10.9793 7.38961 10.9793 6.99589C10.9793 6.60216 10.6601 6.28296 10.2664 6.28296Z" fill="black"/>
<path d="M14.8289 6.28296H14.0684C13.6747 6.28296 13.3555 6.60216 13.3555 6.99589C13.3555 7.38961 13.6747 7.70882 14.0684 7.70882H14.8289C15.2226 7.70882 15.5418 7.38961 15.5418 6.99589C15.5418 6.60216 15.2226 6.28296 14.8289 6.28296Z" fill="black"/>
<path d="M10.2664 9.32495H9.5059C9.11217 9.32495 8.79297 9.64415 8.79297 10.0379C8.79297 10.4316 9.11217 10.7508 9.5059 10.7508H10.2664C10.6601 10.7508 10.9793 10.4316 10.9793 10.0379C10.9793 9.64415 10.6601 9.32495 10.2664 9.32495Z" fill="black"/>
<path d="M14.8289 9.32495H14.0684C13.6747 9.32495 13.3555 9.64415 13.3555 10.0379C13.3555 10.4316 13.6747 10.7508 14.0684 10.7508H14.8289C15.2226 10.7508 15.5418 10.4316 15.5418 10.0379C15.5418 9.64415 15.2226 9.32495 14.8289 9.32495Z" fill="black"/>
<path d="M10.2664 12.3665H9.5059C9.11217 12.3665 8.79297 12.6857 8.79297 13.0794C8.79297 13.4731 9.11217 13.7923 9.5059 13.7923H10.2664C10.6601 13.7923 10.9793 13.4731 10.9793 13.0794C10.9793 12.6857 10.6601 12.3665 10.2664 12.3665Z" fill="black"/>
<path d="M14.8289 12.3665H14.0684C13.6747 12.3665 13.3555 12.6857 13.3555 13.0794C13.3555 13.4731 13.6747 13.7923 14.0684 13.7923H14.8289C15.2226 13.7923 15.5418 13.4731 15.5418 13.0794C15.5418 12.6857 15.2226 12.3665 14.8289 12.3665Z" fill="black"/>
<path d="M10.2664 15.4084H9.5059C9.11217 15.4084 8.79297 15.7276 8.79297 16.1214C8.79297 16.5151 9.11217 16.8343 9.5059 16.8343H10.2664C10.6601 16.8343 10.9793 16.5151 10.9793 16.1214C10.9793 15.7276 10.6601 15.4084 10.2664 15.4084Z" fill="black"/>
<path d="M14.8289 15.4084H14.0684C13.6747 15.4084 13.3555 15.7276 13.3555 16.1214C13.3555 16.5151 13.6747 16.8343 14.0684 16.8343H14.8289C15.2226 16.8343 15.5418 16.5151 15.5418 16.1214C15.5418 15.7276 15.2226 15.4084 14.8289 15.4084Z" fill="black"/>
</svg>
