<svg width="133" height="55" viewBox="0 0 133 55" fill="none" xmlns="http://www.w3.org/2000/svg">
<path d="M82.8794 25.7704V22.3749H66.332V44.7712H82.8794V41.3101H69.8247V35.2039H82.4149V31.9737H69.8247V25.7704H82.8794Z" fill="#2FC89C"/>
<path d="M89.7597 22.2675C88.7809 22.2675 87.7969 22.8657 87.7969 24.2066C87.7969 25.5475 88.7809 26.1458 89.7597 26.1458C90.7384 26.1458 91.7225 25.5449 91.7225 24.2066C91.7225 22.8684 90.7358 22.2675 89.7597 22.2675Z" fill="#2FC89C"/>
<path d="M91.3524 29.1848H88.1562V44.7717H91.3524V29.1848Z" fill="#2FC89C"/>
<path d="M110.229 31.7639L112.01 29.4993L109.701 27.757L108.088 29.8011L107.757 29.5781C106.634 28.8171 105.29 28.72 104.243 28.72C99.6039 28.72 96.3711 31.9607 96.3711 36.5922C96.3711 41.4834 99.3179 44.404 104.243 44.404C106.45 44.404 108.825 45.5664 108.825 48.1196C108.825 50.4813 106.988 52.0715 104.243 52.0715C101.729 52.0715 99.7824 50.5836 99.5541 48.5474H96.379C96.5994 52.368 99.7719 54.9999 104.251 54.9999C108.904 54.9999 112.029 52.2342 112.029 48.1196C112.029 46.5111 111.669 44.4853 108.88 43.0893L108.077 42.6852L108.893 42.3152C111.866 40.956 112.097 37.5919 112.097 36.5922C112.097 34.7265 111.572 33.2754 110.478 32.0263L110.229 31.7639ZM104.243 41.5779C101.467 41.5779 99.52 39.5285 99.52 36.5922C99.52 33.6558 101.501 31.5461 104.243 31.5461C106.985 31.5461 108.925 33.669 108.925 36.5922C108.925 39.5154 106.957 41.5779 104.243 41.5779Z" fill="#2FC89C"/>
<path d="M124.547 31.8163C127.208 31.8163 128.927 33.7056 128.927 36.6288V44.7634H132.123V36.5973C132.123 32.0446 129.499 28.9875 125.61 28.9875C123.742 28.9875 122.175 29.7065 120.527 31.3203L119.905 31.9317L119.58 29.2185H116.77V44.7713H119.918V36.8309C119.932 33.9706 121.915 31.8163 124.547 31.8163Z" fill="#2FC89C"/>
<path d="M29.4472 0L0 24.2962L4.35856 29.581L29.4472 8.97953L54.5358 29.581L58.8944 24.2962L29.4472 0Z" fill="#0042CC"/>
<path d="M42.2498 27.458V43.1341H32.6877V35.0599H26.2089V43.1341H16.639V27.458H10.1602V43.1341V49.3873H16.639H26.2089H32.6877H42.2498H43.4463H48.7286V27.458H42.2498Z" fill="#0042CC"/>
</svg>
