<svg width="26" height="32" viewBox="0 0 26 32" fill="none" xmlns="http://www.w3.org/2000/svg">
<path d="M22.7819 -0.000244141H2.72655C1.22313 -0.000244141 0 1.22289 0 2.72631V28.2953C0 29.7988 1.22313 31.0219 2.72655 31.0219H22.7819C24.2853 31.0219 25.5084 29.7988 25.5084 28.2953V2.72631C25.5084 1.22289 24.2853 -0.000244141 22.7819 -0.000244141ZM2.72655 1.81746H22.7819C23.283 1.81746 23.6907 2.22517 23.6907 2.72631V7.33116H1.8177V2.72631C1.8177 2.22517 2.22541 1.81746 2.72655 1.81746ZM22.7819 29.2042H2.72655C2.22541 29.2042 1.8177 28.7965 1.8177 28.2953V9.14886H23.6907V28.2953C23.6907 28.7965 23.283 29.2042 22.7819 29.2042Z" fill="#4F4F4F"/>
<path d="M12.7864 10.9668C8.77731 10.9668 5.51562 14.2285 5.51562 18.2376C5.51562 22.2467 8.77731 25.5084 12.7864 25.5084C16.7956 25.5084 20.0572 22.2467 20.0572 18.2376C20.0572 14.2285 16.7956 10.9668 12.7864 10.9668ZM12.7864 12.7845C15.4777 12.7845 17.7195 14.7443 18.1605 17.3116C18.1604 17.3174 18.1597 17.323 18.1597 17.3288C18.1597 18.5022 16.6528 19.0238 16.001 17.9691C15.4843 17.1331 14.2775 17.1344 13.7618 17.969C13.2915 18.7297 12.2837 18.7322 11.812 17.969C11.2954 17.133 10.0885 17.1345 9.57286 17.969C8.9217 19.0221 7.41319 18.5041 7.41319 17.3288C7.41319 17.323 7.4124 17.3174 7.41234 17.3117C7.85337 14.7443 10.0952 12.7845 12.7864 12.7845ZM12.7864 23.6907C10.479 23.6907 8.50181 22.25 7.70681 20.221C8.75059 20.5489 9.8958 20.2825 10.6924 19.4701C11.8526 20.6533 13.7215 20.6527 14.8813 19.4701C15.6793 20.284 16.8244 20.5483 17.8661 20.221C17.0711 22.25 15.0939 23.6907 12.7864 23.6907Z" fill="#4F4F4F"/>
<path d="M20.9635 5.51326C21.4655 5.51326 21.8724 5.10635 21.8724 4.60441C21.8724 4.10246 21.4655 3.69556 20.9635 3.69556C20.4616 3.69556 20.0547 4.10246 20.0547 4.60441C20.0547 5.10635 20.4616 5.51326 20.9635 5.51326Z" fill="#4F4F4F"/>
<path d="M17.3268 5.51326C17.8288 5.51326 18.2357 5.10635 18.2357 4.60441C18.2357 4.10246 17.8288 3.69556 17.3268 3.69556C16.8249 3.69556 16.418 4.10246 16.418 4.60441C16.418 5.10635 16.8249 5.51326 17.3268 5.51326Z" fill="#4F4F4F"/>
<path d="M13.694 5.51326C14.196 5.51326 14.6029 5.10635 14.6029 4.60441C14.6029 4.10246 14.196 3.69556 13.694 3.69556C13.1921 3.69556 12.7852 4.10246 12.7852 4.60441C12.7852 5.10635 13.1921 5.51326 13.694 5.51326Z" fill="#4F4F4F"/>
<path d="M4.60416 5.51326H7.30042C7.80235 5.51326 8.20927 5.10634 8.20927 4.60441C8.20927 4.10248 7.80235 3.69556 7.30042 3.69556H4.60416C4.10224 3.69556 3.69531 4.10248 3.69531 4.60441C3.69531 5.10634 4.10224 5.51326 4.60416 5.51326Z" fill="#4F4F4F"/>
<path d="M20.9336 25.5083H19.1159C18.614 25.5083 18.207 25.9152 18.207 26.4172C18.207 26.9191 18.614 27.326 19.1159 27.326H20.9336C21.4355 27.326 21.8424 26.9191 21.8424 26.4172C21.8424 25.9152 21.4355 25.5083 20.9336 25.5083Z" fill="#4F4F4F"/>
</svg>
