<svg width="239" height="239" viewBox="0 0 239 239" fill="none" xmlns="http://www.w3.org/2000/svg">
<path d="M80.2235 7L96 46.9086C81.1572 51.6981 68.1345 60.8875 58.6717 73.249C49.2089 85.6105 43.7567 100.555 43.0436 116.087L0 118C0.316959 93.5278 8.18662 69.7463 22.5396 49.887C36.8926 30.0277 57.0328 15.0538 80.2235 7Z" fill="#0042CC"/>
<path d="M75 181.306L43.254 211C29.698 199.83 18.7946 185.842 11.3188 170.029C3.84303 154.216 -0.0214545 136.967 8.95857e-05 119.509C8.95857e-05 118.985 8.95857e-05 118.435 8.95857e-05 117.912L43.3069 116C43.3069 117.152 43.3069 118.33 43.3069 119.509C43.2803 131.555 46.1387 143.437 51.6477 154.179C57.1568 164.921 65.1596 174.217 75 181.306Z" fill="#0042CC"/>
<path d="M100 193.202L92.1234 236C74.0615 231.699 57.2406 223.188 43 211.145L74.5062 181C82.1749 186.647 90.8227 190.786 100 193.202Z" fill="#C1DAFF"/>
<path d="M188.259 153L223 179.131C210.141 201.416 190.457 218.962 166.863 229.172C143.269 239.381 117.019 241.71 92 235.815L99.8837 193.447C106.242 195.168 112.796 196.053 119.383 196.078C133.74 196.081 147.81 192.044 159.988 184.427C172.166 176.81 181.962 165.921 188.259 153Z" fill="#F2994A"/>
<path d="M224.913 63C234.487 80.9161 239.329 100.963 238.983 121.255C238.637 141.547 233.114 161.418 222.935 179L188.064 152.916C193.973 140.883 196.614 127.52 195.725 114.155C194.837 100.79 190.449 87.8901 183 76.7382L224.913 63Z" fill="#FECA7A"/>
<path d="M224.921 63.2003L183.158 77C173.912 63.1068 160.366 52.6146 144.587 47.1245C128.809 41.6344 111.664 41.4479 95.7694 46.5934L80 6.63719C106.957 -2.72239 136.376 -2.16725 162.959 8.20265C189.543 18.5725 211.543 38.0758 225 63.2003H224.921Z" fill="#3CD7E1"/>
</svg>
