<svg width="29" height="30" viewBox="0 0 29 30" fill="none" xmlns="http://www.w3.org/2000/svg">
<path d="M2.39522 25.5393C3.82212 26.9661 6.0228 27.1307 7.62908 26.0682L10.5068 28.946C10.8315 29.2707 11.3582 29.2708 11.6831 28.946L14.0356 26.5935C14.3602 26.2688 14.3603 25.742 14.0356 25.4173L11.2236 22.6053C16.8348 17.2929 22.6127 16.9238 24.4127 16.2928C24.7035 16.2201 24.9326 15.9967 25.0125 15.7079C25.0925 15.4191 25.011 15.1097 24.7991 14.8977L11.8606 1.95918C11.6487 1.74731 11.3393 1.66581 11.0505 1.74576C10.7617 1.82577 10.5383 2.05488 10.4656 2.3456C9.85444 4.05401 9.44811 10.2528 3.71521 15.9857C3.32586 16.375 1.4582 18.2427 1.21899 18.4819C-0.406193 20.107 -0.40647 22.7377 1.21899 24.3631L2.39522 25.5393ZM11.095 27.1817L8.86452 24.9512L10.0407 23.775L12.2713 26.0055L11.095 27.1817ZM5.32953 16.7113C7.74901 14.1652 9.58302 11.1462 10.7095 7.86558L18.8927 16.0488C15.6121 17.1753 12.5931 19.0093 10.047 21.4288L5.32953 16.7113ZM11.723 4.17411L22.5842 15.0352C21.4404 15.3219 21.0712 15.4123 20.7033 15.5069L11.2514 6.05503C11.3409 5.70681 11.5153 5.00318 11.723 4.17411ZM2.39522 19.6581L4.15958 17.8938L8.86452 22.5987L7.10016 24.3631C6.12732 25.3359 4.54433 25.336 3.57144 24.3631L2.39522 23.1868C1.42016 22.2118 1.41994 20.6334 2.39522 19.6581Z" fill="black"/>
<path d="M17.5231 5.84559C17.9825 5.84559 18.3549 5.4732 18.3549 5.01387V1.63153C18.3549 1.17219 17.9825 0.799805 17.5231 0.799805C17.0638 0.799805 16.6914 1.17219 16.6914 1.63153V5.01387C16.6914 5.47325 17.0638 5.84559 17.5231 5.84559Z" fill="black"/>
<path d="M20.4756 7.42139C20.8872 7.62721 21.3864 7.45942 21.5914 7.04944L22.7388 4.75466L23.5863 5.60213C23.7747 5.79049 24.0419 5.87721 24.305 5.83546C24.5681 5.79365 24.7952 5.62836 24.9159 5.39087L26.6348 2.00854C26.8429 1.59905 26.6796 1.09836 26.2702 0.890258C25.8606 0.682106 25.3599 0.845401 25.1519 1.25494L23.9522 3.61559L23.0991 2.76252C22.9101 2.5735 22.6417 2.48683 22.3778 2.52964C22.1139 2.57244 21.8867 2.73957 21.7671 2.97866L20.1037 6.30555C19.8982 6.71636 20.0647 7.21595 20.4756 7.42139Z" fill="black"/>
<path d="M24.8193 7.81022C24.67 7.62996 24.4515 7.52095 24.2177 7.51003C23.9832 7.49899 23.7562 7.58721 23.5907 7.75272L21.9272 9.41617C21.6024 9.74098 21.6024 10.2676 21.9272 10.5924C22.252 10.9172 22.7786 10.9172 23.1034 10.5924L24.121 9.57486L25.2018 10.8794C25.5337 11.2801 26.1482 11.2809 26.4813 10.8811L28.2002 8.81772C28.4942 8.46479 28.4464 7.94036 28.0935 7.64632C27.7405 7.35228 27.2161 7.40013 26.9221 7.753L25.8441 9.04716L24.8193 7.81022Z" fill="black"/>
</svg>
