<svg width="30" height="34" viewBox="0 0 30 34" fill="none" xmlns="http://www.w3.org/2000/svg">
<path d="M-1.34695e-06 3.18502L-1.29792e-07 31.0305C-5.82248e-08 32.6677 1.33203 33.9998 2.9693 33.9998L10.8874 33.9998C12.5247 33.9998 13.8567 32.6677 13.8567 31.0305L13.8567 30.0407L15.8363 30.0407L15.8363 31.0305C15.8363 32.6677 17.1683 33.9998 18.8056 33.9998L26.7237 33.9998C28.361 33.9998 29.693 32.6677 29.693 31.0305L29.693 3.18502C29.693 1.54775 28.361 0.21572 26.7237 0.21572L18.8056 0.21572C17.1683 0.21572 15.8363 1.54775 15.8363 3.18502L15.8363 4.24077L13.8567 4.24077L13.8567 3.18502C13.8567 1.54775 12.5247 0.215721 10.8874 0.215721L2.9693 0.215721C1.33203 0.215721 -1.41852e-06 1.54775 -1.34695e-06 3.18502ZM18.8056 2.19525L26.7237 2.19525C27.2695 2.19525 27.7135 2.63926 27.7135 3.18502L27.7135 31.0305C27.7135 31.5762 27.2695 32.0202 26.7237 32.0202L18.8056 32.0202C18.2598 32.0202 17.8158 31.5762 17.8158 31.0305L17.8158 3.18502C17.8158 2.63926 18.2598 2.19525 18.8056 2.19525ZM15.8363 6.2203L15.8363 28.0612L13.8567 28.0612L13.8567 6.2203L15.8363 6.2203ZM10.8874 2.19525C11.4332 2.19525 11.8772 2.63926 11.8772 3.18502L11.8772 31.0305C11.8772 31.5762 11.4332 32.0202 10.8874 32.0202L2.9693 32.0202C2.42354 32.0202 1.97953 31.5762 1.97953 31.0305L1.97953 3.18502C1.97953 2.63926 2.42354 2.19526 2.9693 2.19526L10.8874 2.19525Z" fill="#4F4F4F"/>
<path d="M3.96094 21.0669L3.96094 27.0715C3.96094 27.6181 4.40409 28.0613 4.9507 28.0613C5.49732 28.0613 5.94047 27.6181 5.94047 27.0715L5.94047 21.0669C5.94047 20.5203 5.49732 20.0772 4.9507 20.0772C4.40409 20.0772 3.96094 20.5203 3.96094 21.0669Z" fill="#4F4F4F"/>
<path d="M7.91797 21.0669L7.91797 27.0715C7.91797 27.6181 8.36112 28.0613 8.90774 28.0613C9.45435 28.0613 9.8975 27.6181 9.8975 27.0715L9.8975 21.0669C9.8975 20.5203 9.45435 20.0772 8.90774 20.0772C8.36112 20.0772 7.91797 20.5203 7.91797 21.0669Z" fill="#4F4F4F"/>
<path d="M19.7969 21.0669L19.7969 27.0715C19.7969 27.6181 20.24 28.0613 20.7866 28.0613C21.3333 28.0613 21.7764 27.6181 21.7764 27.0715L21.7764 21.0669C21.7764 20.5203 21.3333 20.0772 20.7866 20.0772C20.24 20.0772 19.7969 20.5203 19.7969 21.0669Z" fill="#4F4F4F"/>
<path d="M23.7539 21.0669L23.7539 27.0715C23.7539 27.6181 24.1971 28.0613 24.7437 28.0613C25.2903 28.0613 25.7334 27.6181 25.7334 27.0715L25.7334 21.0669C25.7334 20.5203 25.2903 20.0772 24.7437 20.0772C24.1971 20.0772 23.7539 20.5203 23.7539 21.0669Z" fill="#4F4F4F"/>
</svg>
