<svg width="23" height="24" viewBox="0 0 23 24" fill="none" xmlns="http://www.w3.org/2000/svg">
<path d="M11.4552 13.7319C12.9727 13.7319 14.2073 12.4973 14.2073 10.9798C14.2073 9.46234 12.9727 8.22778 11.4552 8.22778C9.93768 8.22778 8.70312 9.46234 8.70312 10.9798C8.70312 12.4973 9.93768 13.7319 11.4552 13.7319ZM11.4552 9.57286C12.231 9.57286 12.8622 10.204 12.8622 10.9798C12.8622 11.7556 12.231 12.3868 11.4552 12.3868C10.6794 12.3868 10.0482 11.7556 10.0482 10.9798C10.0482 10.204 10.6794 9.57286 11.4552 9.57286Z" fill="black"/>
<path d="M3.93726 12.2559H3.06727C2.93088 12.2559 2.82031 12.3664 2.82031 12.5028V15.3787C2.82031 15.5151 2.93088 15.6256 3.06727 15.6256H3.93726C4.07365 15.6256 4.18422 15.5151 4.18422 15.3787V12.5028C4.18426 12.3664 4.0737 12.2559 3.93726 12.2559Z" fill="black"/>
<path d="M3.93726 17.1831H3.06727C2.93088 17.1831 2.82031 17.2937 2.82031 17.4301V20.3059C2.82031 20.4423 2.93088 20.5529 3.06727 20.5529H3.93726C4.07365 20.5529 4.18422 20.4423 4.18422 20.3059V17.4301C4.18426 17.2937 4.0737 17.1831 3.93726 17.1831Z" fill="black"/>
<path d="M19.0439 15.6261H19.9139C20.0503 15.6261 20.1608 15.5156 20.1608 15.3792V12.5033C20.1608 12.3669 20.0503 12.2563 19.9139 12.2563H19.0438C18.9074 12.2563 18.7969 12.3669 18.7969 12.5033V15.3792C18.7969 15.5155 18.9075 15.6261 19.0439 15.6261Z" fill="black"/>
<path d="M19.0439 20.5529H19.9139C20.0503 20.5529 20.1608 20.4423 20.1608 20.3059V17.4301C20.1608 17.2937 20.0503 17.1831 19.9139 17.1831H19.0438C18.9074 17.1831 18.7969 17.2937 18.7969 17.4301V20.3059C18.7969 20.4423 18.9075 20.5529 19.0439 20.5529Z" fill="black"/>
<path d="M22.3102 9.34392H17.3173V6.51218L18.6328 6.90503C19.5066 7.12168 19.8336 5.88349 19.0177 5.61618L12.2048 3.58167V1.86607H15.8755C16.2469 1.86607 16.548 1.56495 16.548 1.19353C16.548 0.822113 16.2469 0.520996 15.8755 0.520996H11.5323C11.1608 0.520996 10.8597 0.822113 10.8597 1.19353V3.58162L4.04679 5.61623C3.19872 5.92273 3.59032 7.12352 4.43166 6.90508L5.66541 6.53662V9.34392H0.672537C0.301117 9.34392 0 9.64504 0 10.0165V22.7996C0 23.171 0.301117 23.4721 0.672537 23.4721H16.643C16.6432 23.4721 16.6436 23.472 16.6438 23.472C16.6441 23.472 16.6444 23.4721 16.6447 23.4721H22.3101C22.6815 23.4721 22.9827 23.171 22.9827 22.7996V10.0165C22.9827 9.64504 22.6816 9.34392 22.3102 9.34392ZM11.5322 4.78461L15.9721 6.11054V22.1271H14.4744V17.7669C14.4744 16.1171 13.1321 14.7749 11.4824 14.7749C9.83263 14.7749 8.49043 16.117 8.49043 17.7667V22.1271H7.01053V10.0165C7.01053 10.0161 7.01048 10.0159 7.01048 10.0156V6.13493L11.5322 4.78461ZM1.34507 10.689H5.66541V22.127H1.34507V10.689ZM9.8355 22.127V17.7666C9.8355 16.8586 10.5743 16.1199 11.4824 16.1199C12.3905 16.1199 13.1293 16.8587 13.1293 17.7668V22.127H9.8355V22.127ZM21.6376 22.127H17.3173V10.689H21.6376V22.127Z" fill="black"/>
</svg>
