<svg width="10" height="11" viewBox="0 0 10 11" fill="none" xmlns="http://www.w3.org/2000/svg">
<path d="M9.88827 4.52095C9.82337 4.3202 9.64531 4.17761 9.43465 4.15863L6.57317 3.8988L5.44166 1.2504C5.35823 1.0563 5.16822 0.930664 4.95711 0.930664C4.74599 0.930664 4.55598 1.0563 4.47255 1.25085L3.34104 3.8988L0.479106 4.15863C0.268825 4.17807 0.0912213 4.3202 0.0259435 4.52095C-0.0393344 4.7217 0.0209512 4.94189 0.180023 5.08069L2.34297 6.9776L1.70516 9.78712C1.65849 9.99369 1.73867 10.2072 1.91008 10.3311C2.00221 10.3977 2.10999 10.4316 2.21869 10.4316C2.31241 10.4316 2.40537 10.4063 2.4888 10.3564L4.95711 8.88117L7.4245 10.3564C7.60506 10.465 7.83266 10.4551 8.00368 10.3311C8.17516 10.2068 8.25526 9.99324 8.20859 9.78712L7.57079 6.9776L9.73373 5.08106C9.89281 4.94189 9.95355 4.72207 9.88827 4.52095V4.52095Z" fill="#FFC107"/>
</svg>
