<svg width="25" height="34" viewBox="0 0 25 34" fill="none" xmlns="http://www.w3.org/2000/svg">
<path d="M18.728 4.40664H18.3072L19.4089 2.20335H20.9313C21.5397 2.20335 22.033 1.71012 22.033 1.10168C22.033 0.493234 21.5398 0 20.9314 0H3.30496C2.69659 0 2.20329 0.493234 2.20329 1.10168C2.20329 1.71012 2.69652 2.20335 3.30496 2.20335H4.82736L5.92903 4.40664H5.50825C2.47099 4.40664 0 6.87763 0 9.91489V23.8692C0 26.6387 2.05489 28.9363 4.71987 29.3201L2.13658 31.9034C1.70636 32.3336 1.70636 33.0312 2.13658 33.4614C2.56673 33.8916 3.26432 33.8917 3.69454 33.4614L7.77845 29.3774H16.4579L20.5418 33.4613C20.972 33.8915 21.6696 33.8916 22.0998 33.4613C22.53 33.0311 22.53 32.3336 22.0998 31.9034L19.5165 29.3201C22.1815 28.9364 24.2364 26.6387 24.2364 23.8692V9.91489C24.2364 6.87763 21.7653 4.40664 18.728 4.40664ZM16.9456 2.20329L15.8439 4.40657H8.39243L7.29075 2.20329H16.9456ZM5.50825 6.60993C6.14678 6.60993 18.2803 6.60993 18.7281 6.60993C20.1643 6.60993 21.3888 7.53107 21.8436 8.81321H2.39273C2.84749 7.53107 4.07203 6.60993 5.50825 6.60993ZM15.4231 11.0166V19.8298H8.81321V11.0166H15.4231ZM2.20329 11.0166H6.60993V19.8298H2.20329V11.0166ZM22.033 23.8692C22.033 25.6915 20.5504 27.1741 18.728 27.1741C18.3797 27.1741 5.9 27.1741 5.50818 27.1741C3.68583 27.1741 2.20322 25.6915 2.20322 23.8692V22.0331H22.033V23.8692ZM22.033 19.8298H17.6264V11.0166H22.033V19.8298Z" fill="#4F4F4F"/>
</svg>
