<svg width="32" height="29" viewBox="0 0 32 29" fill="none" xmlns="http://www.w3.org/2000/svg">
<path d="M19.1172 22.6226L16.4064 16.6953C16.2579 16.3705 15.9335 16.1621 15.5763 16.1621C15.2191 16.1621 14.8948 16.3705 14.7462 16.6953L12.0354 22.6225C10.8612 25.1897 12.7375 28.1131 15.5595 28.1131H15.5931C18.416 28.1131 20.291 25.1887 19.1172 22.6226ZM15.5931 26.2876H15.5594C14.0616 26.2876 13.0729 24.7431 13.6954 23.3818L15.5763 19.2695L17.4571 23.3818V23.3818C18.0799 24.7438 17.0899 26.2876 15.5931 26.2876Z" fill="#4F4F4F"/>
<path d="M28.4174 5.47634H20.7502V4.56358C20.7502 4.05949 20.3415 3.65081 19.8374 3.65081H16.4906V1.82529H20.1417C20.6458 1.82529 21.0544 1.41661 21.0544 0.912521C21.0544 0.408431 20.6458 -0.000244141 20.1417 -0.000244141H11.014C10.5099 -0.000244141 10.1013 0.408431 10.1013 0.912521C10.1013 1.41661 10.5099 1.82529 11.014 1.82529H14.6651V3.65081H11.3183C10.8142 3.65081 10.4055 4.05949 10.4055 4.56358V5.47634H1.82553V4.56358C1.82553 4.05949 1.41685 3.65081 0.912765 3.65081C0.408675 3.65081 0 4.05949 0 4.56358C0 5.61569 0 12.2495 0 13.0827C0 13.5868 0.408675 13.9955 0.912765 13.9955C1.41685 13.9955 1.82553 13.5868 1.82553 13.0827V12.17H10.4055V13.0827C10.4055 13.5868 10.8142 13.9955 11.3183 13.9955H19.8374C20.3415 13.9955 20.7502 13.5868 20.7502 13.0827V12.17H24.4621V14.9082C24.4621 15.4123 24.8708 15.821 25.3749 15.821H30.2429C30.747 15.821 31.1557 15.4123 31.1557 14.9082V8.21464C31.1557 6.70474 29.9273 5.47634 28.4174 5.47634ZM10.4055 10.3444H1.82553V7.30187H10.4055V10.3444ZM18.9247 12.17H12.231C12.231 11.4145 12.231 6.35242 12.231 5.47634H18.9247C18.9247 6.35041 18.9247 11.4081 18.9247 12.17ZM29.3302 13.9955H26.2876V11.2572C26.2876 10.7531 25.879 10.3444 25.3749 10.3444H20.7502V7.30187H28.4174C28.9207 7.30187 29.3302 7.71134 29.3302 8.21464V13.9955Z" fill="#4F4F4F"/>
</svg>
