<svg width="15" height="11" viewBox="0 0 15 11" fill="none" xmlns="http://www.w3.org/2000/svg">
<path d="M14.0378 1.45288L14.0557 1.57011C13.8823 0.95463 13.4139 0.479712 12.8188 0.306851L12.8062 0.30386C11.6871 8.19986e-06 7.18377 8.26624e-06 7.18377 8.26624e-06C7.18377 8.26624e-06 2.69178 -0.00597314 1.56131 0.30386C0.954798 0.479712 0.485861 0.95463 0.315393 1.55755L0.312402 1.57011C-0.105694 3.7539 -0.108684 6.37791 0.330944 8.71602L0.312402 8.59759C0.485861 9.21307 0.9542 9.68799 1.54934 9.86085L1.5619 9.86384C2.67982 10.1683 7.18437 10.1683 7.18437 10.1683C7.18437 10.1683 11.6758 10.1683 12.8068 9.86384C13.4139 9.68799 13.8829 9.21307 14.0533 8.61015L14.0563 8.59759C14.2465 7.58196 14.3554 6.4132 14.3554 5.21933C14.3554 5.17566 14.3554 5.1314 14.3548 5.08714C14.3554 5.04647 14.3554 4.99802 14.3554 4.94957C14.3554 3.75509 14.2465 2.58634 14.0378 1.45288ZM5.74705 7.26794V2.90574L9.49496 5.09013L5.74705 7.26794Z" fill="#FF0000"/>
</svg>
